<?xml version="1.0" encoding="UTF-8" standalone="no"?>
<!-- Created with Inkscape (http://www.inkscape.org/) -->

<svg
   xmlns:dc="http://purl.org/dc/elements/1.1/"
   xmlns:cc="http://creativecommons.org/ns#"
   xmlns:rdf="http://www.w3.org/1999/02/22-rdf-syntax-ns#"
   xmlns:svg="http://www.w3.org/2000/svg"
   xmlns="http://www.w3.org/2000/svg"
   xmlns:sodipodi="http://sodipodi.sourceforge.net/DTD/sodipodi-0.dtd"
   xmlns:inkscape="http://www.inkscape.org/namespaces/inkscape"
   width="525.96429"
   height="644.13196"
   id="svg5477"
   version="1.1"
   inkscape:version="0.48.3.1 r9886"
   sodipodi:docname="Github.svg">
  <defs
     id="defs3">
    <clipPath
       clipPathUnits="userSpaceOnUse"
       id="clipPath3020">
      <path
         inkscape:connector-curvature="0"
         d="m 0,0 4802,0 0,1298.75 -4802,0 L 0,0 z"
         id="path3022" />
    </clipPath>
  </defs>
  <sodipodi:namedview
     inkscape:document-units="mm"
     id="base"
     pagecolor="#ffffff"
     bordercolor="#666666"
     borderopacity="1.0"
     inkscape:pageopacity="0.0"
     inkscape:pageshadow="2"
     inkscape:zoom="0.35"
     inkscape:cx="308.69643"
     inkscape:cy="1.3662792"
     inkscape:current-layer="layer1"
     showgrid="false"
     units="mm"
     fit-margin-top="0"
     fit-margin-left="0"
     fit-margin-right="0"
     fit-margin-bottom="0"
     inkscape:window-width="717"
     inkscape:window-height="1003"
     inkscape:window-x="1920"
     inkscape:window-y="19"
     inkscape:window-maximized="0" />
  <metadata
     id="metadata4">
    <rdf:RDF>
      <cc:Work
         rdf:about="">
        <dc:format>image/svg+xml</dc:format>
        <dc:type
           rdf:resource="http://purl.org/dc/dcmitype/StillImage" />
      </cc:Work>
    </rdf:RDF>
  </metadata>
  <g
     inkscape:label="Layer 1"
     inkscape:groupmode="layer"
     id="layer1"
     transform="translate(-162.73215,87.546389)">
    <g
       transform="matrix(0.87624204,0,0,0.87624204,87.735211,84.073501)"
       id="layer1-2"
       inkscape:label="Layer 1">
      <g
         id="g3012"
         inkscape:label="ink_ext_XXXXXX"
         transform="matrix(1.25,0,0,-1.25,85.589293,539.24835)">
        <g
           id="g3014"
           transform="scale(0.1,0.1)">
          <g
             id="g3016">
            <g
               id="g3018"
               clip-path="url(#clipPath3020)">
              <path
                 inkscape:connector-curvature="0"
                 d="m 924.973,742.875 -403.567,0 c -10.41,0 -18.855,-8.449 -18.855,-18.867 l 0,-197.305 c 0,-10.41 8.445,-18.887 18.855,-18.887 l 157.434,0 0,-245.136 c 0,0 -35.356,-12.051 -133.078,-12.051 -115.301,0 -276.367,42.133 -276.367,396.312 0,354.259 167.714,400.869 325.175,400.869 136.297,0 195.02,-24 232.383,-35.56 11.738,-3.6 22.598,8.09 22.598,18.51 l 45.019,190.64 c 0,4.87 -1.648,10.74 -7.207,14.73 -15.175,10.82 -107.746,62.62 -341.601,62.62 C 276.348,1298.75 0,1184.13 0,633.129 0,82.1094 316.395,0 583.02,0 c 220.757,0 354.683,94.3398 354.683,94.3398 5.52,3.0508 6.113,10.7622 6.113,14.3012 l 0,615.367 c 0,10.418 -8.433,18.867 -18.843,18.867"
                 style="fill:#161312;fill-opacity:1;fill-rule:nonzero;stroke:none"
                 id="path3024" />
              <path
                 inkscape:connector-curvature="0"
                 d="m 3004.75,1232.73 c 0,10.5 -8.32,18.97 -18.73,18.97 l -227.23,0 c -10.38,0 -18.82,-8.47 -18.82,-18.97 0,-0.05 0.06,-439.125 0.06,-439.125 l -354.19,0 0,439.125 c 0,10.5 -8.36,18.97 -18.75,18.97 l -227.22,0 c -10.34,0 -18.77,-8.47 -18.77,-18.97 l 0,-1189.0308 c 0,-10.4883 8.43,-19.0273 18.77,-19.0273 l 227.22,0 c 10.39,0 18.75,8.539 18.75,19.0273 l 0,508.5898 354.19,0 c 0,0 -0.62,-508.5507 -0.62,-508.5898 0,-10.4883 8.43,-19.0273 18.82,-19.0273 l 227.77,0 c 10.41,0 18.73,8.539 18.75,19.0273 l 0,1189.0308"
                 style="fill:#161312;fill-opacity:1;fill-rule:nonzero;stroke:none"
                 id="path3026" />
              <path
                 inkscape:connector-curvature="0"
                 d="m 1353.76,1076.7 c 0,81.82 -65.6,147.94 -146.53,147.94 -80.85,0 -146.5,-66.12 -146.5,-147.94 0,-81.735 65.65,-148.032 146.5,-148.032 80.93,0 146.53,66.297 146.53,148.032"
                 style="fill:#161312;fill-opacity:1;fill-rule:nonzero;stroke:none"
                 id="path3028" />
              <path
                 inkscape:connector-curvature="0"
                 d="m 1337.51,294.52 c 0,30.464 0,548.859 0,548.859 0,10.422 -8.41,18.941 -18.8,18.941 l -226.51,0 c -10.39,0 -19.69,-10.718 -19.69,-21.136 0,0 0,-660.454 0,-786.352 0,-23.1132 14.4,-29.9804 33.04,-29.9804 0,0 96.68,0 204.08,0 22.39,0 27.88,10.9882 27.88,30.3476 0,42.1524 0,207.2698 0,239.3208"
                 style="fill:#161312;fill-opacity:1;fill-rule:nonzero;stroke:none"
                 id="path3030" />
              <path
                 inkscape:connector-curvature="0"
                 d="m 3868.32,860.531 -225.49,0 c -10.34,0 -18.76,-8.523 -18.76,-19.011 l 0,-583.02 c 0,0 -57.28,-41.91 -138.59,-41.91 -81.3,0 -102.88,36.89 -102.88,116.5 0,79.707 0,508.43 0,508.43 0,10.488 -8.4,19.011 -18.75,19.011 l -228.85,0 c -10.33,0 -18.79,-8.523 -18.79,-19.011 0,0 0,-310.481 0,-546.93 0,-236.4611 131.79,-294.30875 313.09,-294.30875 148.73,0 268.65,82.16795 268.65,82.16795 0,0 5.71,-43.3008 8.29,-48.4375 2.59,-5.1211 9.32,-10.2929 16.59,-10.2929 l 145.59,0.6406 c 10.33,0 18.79,8.539 18.79,18.9804 l -0.07,798.1802 c 0,10.488 -8.43,19.011 -18.82,19.011"
                 style="fill:#161312;fill-opacity:1;fill-rule:nonzero;stroke:none"
                 id="path3032" />
              <path
                 inkscape:connector-curvature="0"
                 d="m 4395.67,217.309 c -78.21,2.382 -131.26,37.871 -131.26,37.871 l 0,376.543 c 0,0 52.34,32.078 116.55,37.812 81.2,7.274 159.44,-17.254 159.44,-210.957 0,-204.258 -35.31,-244.566 -144.73,-241.269 z m 88.94,669.933 c -128.07,0 -215.18,-57.14 -215.18,-57.14 l 0,402.628 c 0,10.5 -8.39,18.97 -18.75,18.97 l -227.87,0 c -10.36,0 -18.78,-8.47 -18.78,-18.97 l 0,-1189.0308 c 0,-10.4883 8.42,-19.0273 18.81,-19.0273 0.02,0 158.05,0 158.1,0 7.12,0 12.51,3.6679 16.49,10.0976 3.93,6.3907 9.6,54.8203 9.6,54.8203 0,0 93.18,-88.30074 269.57,-88.30074 207.08,0 325.84,105.04294 325.84,471.54694 0,366.512 -189.67,414.406 -317.83,414.406"
                 style="fill:#161312;fill-opacity:1;fill-rule:nonzero;stroke:none"
                 id="path3034" />
              <path
                 inkscape:connector-curvature="0"
                 d="m 1990.58,862.426 -170.45,0 c 0,0 -0.26,225.134 -0.26,225.184 0,8.52 -4.39,12.78 -14.24,12.78 l -232.28,0 c -9.03,0 -13.88,-3.97 -13.88,-12.65 l 0,-232.697 c 0,0 -116.4,-28.102 -124.27,-30.371 -7.84,-2.274 -13.61,-9.5 -13.61,-18.125 l 0,-146.227 c 0,-10.515 8.4,-18.996 18.79,-18.996 l 119.09,0 c 0,0 0,-152.941 0,-351.785 0,-261.289 183.28,-286.96088 306.96,-286.96088 56.51,0 124.11,18.15238 135.27,22.27348 6.75,2.4804 10.67,9.4687 10.67,17.0468 l 0.19,160.8636 c 0,10.488 -8.86,18.976 -18.84,18.976 -9.93,0 -35.34,-4.039 -61.5,-4.039 -83.72,0 -112.09,38.93 -112.09,89.317 0,50.351 -0.01,334.308 -0.01,334.308 l 170.46,0 c 10.39,0 18.8,8.481 18.8,18.996 l 0,183.16 c 0,10.497 -8.41,18.946 -18.8,18.946"
                 style="fill:#161312;fill-opacity:1;fill-rule:nonzero;stroke:none"
                 id="path3036" />
            </g>
          </g>
        </g>
      </g>
    </g>
    <path
       id="path5563"
       d="m 190.09145,148.07646 q 0,65.04172 31.66182,118.05687 31.66182,54.73322 85.90416,86.1496 54.24235,31.41638 118.05687,31.41638 64.05996,0 118.54775,-31.41638 54.48778,-31.66182 85.78142,-86.02688 31.29366,-54.36507 31.29366,-118.17959 0,-64.796283 -31.41638,-118.547746 -31.6618,-54.487784 -86.02686,-85.781443 -54.36507,-31.29366 -118.17959,-31.29366 -65.04172,0 -118.05687,31.66182 -54.73322,31.661821 -86.1496,85.904164 -31.41638,54.242343 -31.41638,118.056865 z m 39.27047,0 q 0,-39.27047 15.46275,-75.841105 15.46275,-36.570629 42.21577,-63.0781999 26.75301,-26.7530101 63.0782,-42.0930401 36.32518,-15.340029 75.59566,-15.340029 39.27047,0 75.8411,15.340029 36.57063,15.34003 63.32365,42.0930401 26.50757,26.5075709 41.84758,63.0781999 15.34003,36.570635 15.34003,75.841105 0,42.21576 -17.30355,80.50447 -17.30354,38.28872 -48.5972,66.14621 -31.29366,27.85749 -71.5459,40.37496 v -69.21421 q 0,-25.77125 -21.10788,-40.25224 51.78794,-4.66337 75.71839,-26.26213 23.93044,-21.59876 23.93044,-68.47789 0,-36.325192 -22.33508,-61.114679 4.41793,-13.253786 4.41793,-25.525809 0,-18.162595 -8.34498,-33.379904 -16.44451,0 -29.45285,5.399691 -13.00835,5.39969 -31.90727,18.653475 -22.82596,-5.15425 -47.12457,-5.15425 -27.73477,0 -51.78793,5.645131 -18.40804,-13.499226 -31.78454,-19.021636 -13.37651,-5.522411 -30.3119,-5.522411 -8.09954,15.46275 -8.09954,33.379904 0,12.762904 4.17249,25.771249 -22.33508,24.053166 -22.33508,60.869239 0,46.87913 23.80772,68.23245 23.80773,21.35332 76.33199,26.26213 -13.99011,9.32674 -19.3898,27.24389 -12.02658,4.17249 -25.03493,4.17249 -9.81762,0 -16.93539,-4.41793 -2.20896,-1.2272 -4.04977,-2.57713 -1.8408,-1.34992 -3.80432,-3.31344 -1.96353,-1.96353 -3.19073,-3.06801 -1.2272,-1.10448 -3.19073,-3.80433 -1.96352,-2.69984 -2.57712,-3.43616 -0.6136,-0.73632 -2.94529,-3.92705 -2.33168,-3.19073 -2.57712,-3.43617 -11.5357,-15.2173 -27.48933,-15.2173 -8.59042,0 -8.59042,3.6816 0,1.47265 4.17249,4.90881 7.85409,6.87233 8.34497,7.36322 5.89058,4.66336 6.6269,5.89057 7.11777,8.83585 10.79938,19.38979 13.74466,30.68006 47.12457,30.68006 5.39969,0 21.10788,-2.4544 v 52.03338 q -40.25224,-12.51747 -71.5459,-40.37496 -31.29366,-27.85749 -48.59721,-66.14621 -17.30356,-38.28871 -17.30356,-80.50447 z"
       inkscape:connector-curvature="0" />
  </g>
</svg>
