<?xml version="1.0" encoding="iso-8859-1"?>
<!-- Generator: Adobe Illustrator 19.2.0, SVG Export Plug-In . SVG Version: 6.00 Build 0)  -->
<svg version="1.1" id="Layer_1" xmlns="http://www.w3.org/2000/svg" xmlns:xlink="http://www.w3.org/1999/xlink" x="0px" y="0px"
	 viewBox="-10 0 60 40" style="enable-background:new 0 0 40 40;" xml:space="preserve">
<g>
	<path style="fill:#8BB7F0;" d="M17,32.5C8.453,32.5,1.5,25.547,1.5,17S8.453,1.5,17,1.5S32.5,8.453,32.5,17S25.547,32.5,17,32.5z"
		/>
	<g>
		<path style="fill:#4E7AB5;" d="M17,2c8.271,0,15,6.729,15,15s-6.729,15-15,15S2,25.271,2,17S8.729,2,17,2 M17,1
			C8.163,1,1,8.163,1,17c0,8.837,7.163,16,16,16s16-7.163,16-16C33,8.163,25.837,1,17,1L17,1z"/>
	</g>
</g>
<g>
	<path style="fill:#FFFFFF;" d="M17,29.5c-6.893,0-12.5-5.607-12.5-12.5S10.107,4.5,17,4.5S29.5,10.107,29.5,17S23.893,29.5,17,29.5
		z"/>
	<path style="fill:#4E7AB5;" d="M17,5c6.627,0,12,5.373,12,12s-5.373,12-12,12S5,23.627,5,17S10.373,5,17,5 M17,4
		C9.832,4,4,9.832,4,17s5.832,13,13,13s13-5.832,13-13S24.168,4,17,4L17,4z"/>
</g>
<g>
	<g>
		<path style="fill:#C2E8FF;" d="M33,39.5c-3.584,0-6.5-3.038-6.5-6.773c0-3.793,5.053-10.194,6.498-11.946
			c1.44,1.771,6.502,8.254,6.502,11.946C39.5,36.462,36.584,39.5,33,39.5z"/>
		<path style="fill:#7496C4;" d="M32.995,21.568C35.178,24.301,39,29.714,39,32.727C39,36.186,36.308,39,33,39s-6-2.814-6-6.273
			C27,29.633,30.813,24.269,32.995,21.568 M33,20c0,0-7,8.083-7,12.727C26,36.744,29.134,40,33,40s7-3.256,7-7.273
			C40,28.208,33,20,33,20L33,20z"/>
	</g>
</g>
<path style="fill:#66798F;" d="M11.346,22.654C9.897,21.206,9,19.206,9,17c0-4.411,3.589-8,8-8s8,3.589,8,8
	c0,2.206-0.897,4.206-2.346,5.654l0.71,0.71C24.993,21.735,26,19.485,26,17c0-4.971-4.029-9-9-9s-9,4.029-9,9
	c0,2.485,1.007,4.735,2.636,6.364L11.346,22.654z"/>
<polygon style="fill:#36404D;" points="12.231,9.357 12.752,8.118 14.035,8.494 20.059,21.079 18.255,21.942 "/>
<g>
	<circle style="fill:#8BB7F0;" cx="17" cy="17" r="1.5"/>
	<g>
		<path style="fill:#4E7AB5;" d="M17,16c0.551,0,1,0.449,1,1s-0.449,1-1,1s-1-0.449-1-1S16.449,16,17,16 M17,15
			c-1.105,0-2,0.895-2,2c0,1.105,0.895,2,2,2s2-0.895,2-2C19,15.895,18.105,15,17,15L17,15z"/>
	</g>
</g>
</svg>
