<svg xmlns="http://www.w3.org/2000/svg" xmlns:xlink="http://www.w3.org/1999/xlink" version="1.1" x="0px" y="0px" viewBox="0 0 48 48" enable-background="new 0 0 48 48" xml:space="preserve">
<path fill="#2196F3" d="M18,29.1C18,29,18,29,18,29.1L18,18h-8v11c0,0,0,0,0,0.1c-2.4,1.4-4,4-4,6.9c0,4.4,3.6,8,8,8  c4.4,0,8-3.6,8-8C22,33,20.4,30.5,18,29.1z"/>
    <path fill="#CFD8DC" d="M18,18V8c0-2.2-1.8-4-4-4s-4,1.8-4,4v10H18z"/>
    <path fill="#64B5F6" d="M30.5,29c-1.9,0-3.5-1.6-3.5-3.5s3.5-6.5,3.5-6.5s3.5,4.6,3.5,6.5S32.4,29,30.5,29z M42,14.5  c0-1.9-3.5-6.5-3.5-6.5S35,12.6,35,14.5s1.6,3.5,3.5,3.5S42,16.4,42,14.5z M42,36.5c0-1.9-3.5-6.5-3.5-6.5S35,34.6,35,36.5  s1.6,3.5,3.5,3.5S42,38.4,42,36.5z"/>
    <path fill="#90A4AE" d="M18,16h-4v-2h4V16z M18,10h-4v2h4V10z"/>
    <path fill="#0D47A1" d="M18,20h-4v-2h4V20z M18,26h-4v2h4V26z M18,22h-4v2h4V22z"/>
</svg>