<?xml version="1.0" encoding="iso-8859-1"?>
<!-- Uploaded to: SVG Repo, www.svgrepo.com, Generator: SVG Repo Mixer Tools -->
<svg height="800px" width="800px" version="1.1" id="Layer_1" xmlns="http://www.w3.org/2000/svg" xmlns:xlink="http://www.w3.org/1999/xlink" 
	 viewBox="0 0 512 512" xml:space="preserve">
<path style="fill:#B4EDEC;" d="M308.366,285.771V62.565c0-28.921-23.445-52.366-52.366-52.366l0,0
	c-28.921,0-52.366,23.445-52.366,52.366v223.207c-36.813,18.998-61.985,57.397-61.985,101.679c0,63.153,51.196,114.35,114.35,114.35
	s114.35-51.197,114.35-114.35C370.35,343.169,345.18,304.77,308.366,285.771z"/>
<path style="fill:#FF0A13;" d="M275.15,335.266v-70.804c0-10.577-8.573-19.15-19.15-19.15l0,0c-10.577,0-19.15,8.573-19.15,19.15
	v70.804c-21.256,7.803-36.422,28.222-36.422,52.183c0,30.691,24.881,55.572,55.572,55.572c30.691,0,55.572-24.881,55.572-55.572
	C311.572,363.488,296.406,343.07,275.15,335.266z"/>
<g>
	<path style="fill:#3D3D3D;" d="M256,512c-68.676,0-124.55-55.873-124.55-124.55c0-44.713,23.593-85.428,61.985-107.717V62.565
		C193.435,28.067,221.501,0,256,0s62.565,28.067,62.565,62.565v217.169c38.392,22.289,61.985,63.004,61.985,107.717
		C380.55,456.127,324.676,512,256,512z M256,20.398c-23.251,0-42.167,18.915-42.167,42.167v223.207c0,3.817-2.131,7.313-5.522,9.064
		c-34.827,17.973-56.463,53.461-56.463,92.615c0,57.429,46.722,104.151,104.151,104.151s104.151-46.723,104.151-104.151
		c0-39.154-21.636-74.642-56.463-92.615c-3.391-1.75-5.522-5.247-5.522-9.064V62.565C298.167,39.314,279.251,20.398,256,20.398z"/>
	<path style="fill:#3D3D3D;" d="M256,453.222c-36.266,0-65.772-29.505-65.772-65.772c0-25.026,14.374-47.85,36.422-58.872v-64.115
		c0-16.183,13.166-29.349,29.349-29.349s29.349,13.166,29.349,29.349v64.115c22.048,11.022,36.421,33.846,36.421,58.872
		C321.772,423.717,292.266,453.222,256,453.222z M256,255.512c-4.935,0-8.951,4.015-8.951,8.951v70.803
		c0,4.278-2.669,8.1-6.685,9.574c-17.787,6.53-29.738,23.653-29.738,42.609c0,25.019,20.355,45.373,45.373,45.373
		s45.373-20.355,45.373-45.373c0-18.956-11.95-36.08-29.738-42.609c-4.015-1.474-6.685-5.296-6.685-9.574v-70.803
		C264.951,259.528,260.935,255.512,256,255.512z"/>
	<path style="fill:#3D3D3D;" d="M257.02,483.442c-36.89,0-70.006-20.536-86.426-53.594c-2.506-5.045-0.447-11.166,4.598-13.671
		c5.046-2.507,11.166-0.447,13.671,4.598c12.951,26.072,39.067,42.269,68.157,42.269c5.633,0,10.199,4.566,10.199,10.199
		S262.653,483.442,257.02,483.442z"/>
	<path style="fill:#3D3D3D;" d="M170.804,399.809c-5.492,0-10.025-4.368-10.189-9.895c-0.029-0.969-0.043-1.943-0.043-2.919
		c0-5.633,4.566-10.199,10.199-10.199c5.633,0,10.199,4.566,10.199,10.199c0,0.773,0.011,1.544,0.035,2.312
		c0.168,5.63-4.26,10.331-9.891,10.498C171.01,399.808,170.907,399.809,170.804,399.809z"/>
</g>
</svg>